<svg id="Camada_1" data-name="Camada 1" xmlns="http://www.w3.org/2000/svg" viewBox="0 0 80 80"><defs><style>.cls-1{fill:#d4d4d4;}</style></defs><title>PetroWalletDesabilitado</title><path class="cls-1" d="M16.06,7.68H63.84a8.38,8.38,0,1,1,.1,16.76H45.5l11,7.18h7.3A15.56,15.56,0,1,0,63.94.5H4.09l11,7.18h1Z"/><path class="cls-1" d="M72.32,52V63.84a8.38,8.38,0,1,1-16.76.1V52.14A15.56,15.56,0,1,0,24.44,52V63.83a8.38,8.38,0,1,1-16.76.11V40a8.38,8.38,0,0,1,8.38-8.38H51.64l-11-7.18H16.06A15.61,15.61,0,0,0,.5,40V63.77a15.56,15.56,0,1,0,31.12.17V52.07A8.38,8.38,0,1,1,48.38,52v11.8a15.56,15.56,0,1,0,31.12.17V49.86h0l-7.18-4.7h0Z"/></svg>