<svg id="Camada_1" data-name="Camada 1" xmlns="http://www.w3.org/2000/svg" xmlns:xlink="http://www.w3.org/1999/xlink" viewBox="0 0 80 80"><defs><style>.cls-1{fill:url(#Gradiente_sem_nome_193);}.cls-2{fill:url(#Gradiente_sem_nome_194);}</style><linearGradient id="Gradiente_sem_nome_193" x1="41.8" y1="31.62" x2="41.8" y2="0.5" gradientUnits="userSpaceOnUse"><stop offset="0" stop-color="#cca72f"/><stop offset="0.27" stop-color="#cead31"/><stop offset="0.65" stop-color="#d5bf37"/><stop offset="1" stop-color="#ded63e"/></linearGradient><linearGradient id="Gradiente_sem_nome_194" x1="40" y1="79.5" x2="40" y2="24.44" gradientUnits="userSpaceOnUse"><stop offset="0" stop-color="#284735"/><stop offset="0.21" stop-color="#365e3a"/><stop offset="0.43" stop-color="#3f6e3d"/><stop offset="0.68" stop-color="#45783f"/><stop offset="1" stop-color="#477b40"/></linearGradient></defs><title>PetroWalletAtivo</title><path class="cls-1" d="M16.06,7.68H63.84a8.38,8.38,0,1,1,.1,16.76H45.5l11,7.18h7.3A15.56,15.56,0,1,0,63.94.5H4.09l11,7.18h1Z"/><path class="cls-2" d="M72.32,52V63.84a8.38,8.38,0,1,1-16.76.1V52.14A15.56,15.56,0,1,0,24.44,52V63.83a8.38,8.38,0,1,1-16.76.11V40a8.38,8.38,0,0,1,8.38-8.38H51.64l-11-7.18H16.06A15.61,15.61,0,0,0,.5,40V63.77a15.56,15.56,0,1,0,31.12.17V52.07A8.38,8.38,0,1,1,48.38,52v11.8a15.56,15.56,0,1,0,31.12.17V49.86h0l-7.18-4.7h0Z"/></svg>