<svg id="Camada_1" data-name="Camada 1" xmlns="http://www.w3.org/2000/svg" viewBox="0 0 80 80"><defs><style>.cls-1{fill:#040006;}</style></defs><title>TransferenciaNormal</title><path class="cls-1" d="M79.73,37.93,48.9,6.89v17.8c-2.22.36-4.35.8-6.41,1.3,0,0,0,.07,0,.11v.13A20.5,20.5,0,0,1,22,46.77h-.13a21.64,21.64,0,0,1-9-2.1A67,67,0,0,0,.27,73.11a52.19,52.19,0,0,1,20.18-17q11.9-5.59,28.46-5.38v18Z"/><path class="cls-1" d="M21.88,8.57A17.48,17.48,0,1,1,9.41,13.69,17.49,17.49,0,0,1,21.88,8.57Zm0,3.47a14.1,14.1,0,1,0,10,4.13A14.13,14.13,0,0,0,21.88,12ZM20.15,35V33.18H16.6V29.72h7V27.9H18.33a1.69,1.69,0,0,1-1.73-1.73V20.88a1.69,1.69,0,0,1,1.73-1.73h1.82V17.33h3.47v1.82h3.55v3.47h-7v1.82h5.29a1.69,1.69,0,0,1,1.73,1.73v5.29a1.69,1.69,0,0,1-1.73,1.73H23.62V35Z"/></svg>